<svg xmlns="http://www.w3.org/2000/svg" version="1.1" xmlns:xlink="http://www.w3.org/1999/xlink" xmlns:svgjs="http://svgjs.com/svgjs" width="512" height="512" x="0" y="0" viewBox="0 0 479.984 479.984" style="enable-background:new 0 0 512 512" xml:space="preserve" class=""><g><path d="m436.756 97.158-181.988-93.589c-9.253-4.758-20.301-4.758-29.553 0l-181.987 93.589c-10.815 5.562-17.533 16.571-17.533 28.733v228.203c0 12.162 6.718 23.171 17.533 28.733l181.988 93.589c9.252 4.758 20.299 4.759 29.553 0l181.988-93.589c10.815-5.562 17.533-16.571 17.533-28.733v-228.203c-.001-12.162-6.719-23.172-17.534-28.733zm1.533 256.936c0 6.139-3.391 11.697-8.851 14.504l-181.988 93.589c-4.671 2.401-10.247 2.401-14.918 0l-181.987-93.589c-5.459-2.808-8.851-8.365-8.851-14.504v-228.203c0-6.139 3.391-11.697 8.851-14.504 196.341-100.97 183.793-95.39 189.447-95.39 5.679 0-6.805-5.534 189.183 95.254l-189.17 96.901-154.382-79.614c-3.925-2.025-8.751-.483-10.777 3.444-2.025 3.927-.483 8.751 3.444 10.777l153.702 79.263v199.022c0 4.418 3.582 8 8 8s8-3.582 8-8v-199.007l190.241-97.45c.088 1.104.056 227.918.056 229.507z" fill="#ffffff" data-original="#000000" class=""></path></g></svg>