<svg xmlns="http://www.w3.org/2000/svg" version="1.1" xmlns:xlink="http://www.w3.org/1999/xlink" xmlns:svgjs="http://svgjs.com/svgjs" width="512" height="512" x="0" y="0" viewBox="0 0 128 128" style="enable-background:new 0 0 512 512" xml:space="preserve" class=""><g><path d="m107.457 63.855-15.515-42.48a11.684 11.684 0 0 0 -8.569-7.457l-7.037-1.512v-6.1a1.749 1.749 0 0 0 -1.75-1.75h-21.172a1.75 1.75 0 0 0 -1.75 1.75v6.1l-7.038 1.512a11.688 11.688 0 0 0 -8.569 7.457l-15.514 42.48a1.75 1.75 0 0 0 1 2.23l11.49 4.505a1.748 1.748 0 0 0 2.265-.983l8.688-21.868v11.732l-3.243 62.129a1.749 1.749 0 0 0 1.747 1.841h16.124a1.75 1.75 0 0 0 1.74-1.56l3.646-33.503 3.646 33.5a1.749 1.749 0 0 0 1.74 1.56h16.124a1.751 1.751 0 0 0 1.748-1.841l-3.247-62.034v-11.821l5.873 14.785 2.816 7.08a1.749 1.749 0 0 0 2.265.983l11.49-4.505a1.75 1.75 0 0 0 1.002-2.23zm-13.848-27.716-2.609-.326-3.252-8.3 2.387-.872zm-20.773-23.5-7.086 2.831v-7.413h7.086zm-17.672-4.582h7.086v7.413l-7.086-2.834zm-17.303 18.583 2.388.872-3.249 8.301-2.6.326zm-5.167 40.055-8.277-3.244 1.41-3.861 8.384 3.287zm2.809-7.07-8.475-3.325 6.014-16.467 5.421-.678a1.747 1.747 0 0 0 1.412-1.1l4.286-10.939a1.751 1.751 0 0 0 -1.03-2.282l-4.069-1.486.283-.777a8.2 8.2 0 0 1 6.017-5.236l7.9-1.7 8.991 3.6v38.578h-14.763v-19.213a1.751 1.751 0 0 0 -3.377-.647zm35.453 60.318-5.217-47.93a1.75 1.75 0 0 0 -3.479 0l-5.216 47.93h-12.71l3.066-58.63h33.2l3.067 58.63zm12.931-81.992a1.75 1.75 0 0 0 -3.376.647v19.215h-14.761v-38.573l8.991-3.6 7.9 1.7a8.2 8.2 0 0 1 6.016 5.236l.284.776-4.071 1.487a1.749 1.749 0 0 0 -1.029 2.282l4.283 10.939a1.75 1.75 0 0 0 1.413 1.1l5.421.678 6.014 16.462-8.472 3.325zm11.42 28.744-1.518-3.818 8.384-3.287 1.41 3.861z" fill="#ffffff" data-original="#000000" class=""></path></g></svg>