<svg xmlns="http://www.w3.org/2000/svg" version="1.1" xmlns:xlink="http://www.w3.org/1999/xlink" xmlns:svgjs="http://svgjs.com/svgjs" width="512" height="512" x="0" y="0" viewBox="0 0 512 512" style="enable-background:new 0 0 512 512" xml:space="preserve" class=""><g><g><path d="m106 200h65v55c0 8.284 6.716 15 15 15h140c8.284 0 15-6.716 15-15v-55h65c24.813 0 45-20.187 45-45s-20.187-45-45-45h-98.072c5.123-8.833 8.072-19.075 8.072-30v-20c0-33.084-26.916-60-60-60s-60 26.916-60 60v20c0 10.925 2.949 21.167 8.072 30h-98.072c-24.813 0-45 20.187-45 45s20.187 45 45 45zm120-120v-20c0-16.542 13.458-30 30-30s30 13.458 30 30v20c0 16.542-13.458 30-30 30s-30-13.458-30-30zm-120 60h300c8.271 0 15 6.729 15 15s-6.729 15-15 15h-80c-8.284 0-15 6.716-15 15v55h-110v-55c0-8.284-6.716-15-15-15h-80c-8.271 0-15-6.729-15-15s6.729-15 15-15z" fill="#ffffff" data-original="#000000"></path><path d="m497 482h-47.509c-6.968-34.192-37.271-60-73.491-60h-2.293l27.089-162.534c1.362-8.172-4.158-15.899-12.33-17.262-8.175-1.358-15.9 4.158-17.262 12.33l-27.911 167.466h-174.586l-27.911-167.466c-1.362-8.171-9.086-13.689-17.262-12.33-8.172 1.362-13.692 9.09-12.33 17.262l27.089 162.534h-2.293c-36.219 0-66.522 25.808-73.491 60h-47.509c-8.284 0-15 6.716-15 15s6.716 15 15 15h482c8.284 0 15-6.716 15-15s-6.716-15-15-15zm-361-30h240c19.555 0 36.228 12.541 42.42 30h-324.84c6.192-17.459 22.865-30 42.42-30z" fill="#ffffff" data-original="#000000"></path><path d="m181 317v40c0 8.284 6.716 15 15 15s15-6.716 15-15v-40c0-8.284-6.716-15-15-15s-15 6.716-15 15z" fill="#ffffff" data-original="#000000"></path><path d="m241 317v60c0 8.284 6.716 15 15 15s15-6.716 15-15v-60c0-8.284-6.716-15-15-15s-15 6.716-15 15z" fill="#ffffff" data-original="#000000"></path><path d="m301 317v40c0 8.284 6.716 15 15 15s15-6.716 15-15v-40c0-8.284-6.716-15-15-15s-15 6.716-15 15z" fill="#ffffff" data-original="#000000"></path></g></g></svg>